<svg width="146" height="17" viewBox="0 0 146 17" fill="none" xmlns="http://www.w3.org/2000/svg">
<path d="M0.264205 1.45455H4.05682L8.0625 11.2273H8.23295L12.2386 1.45455H16.0312V16H13.0483V6.53267H12.9276L9.16335 15.929H7.1321L3.3679 6.49716H3.24716V16H0.264205V1.45455ZM21.619 16.206C20.9229 16.206 20.3027 16.0852 19.7582 15.8438C19.2137 15.5975 18.7828 15.2353 18.4656 14.7571C18.1531 14.2741 17.9968 13.6728 17.9968 12.9531C17.9968 12.3471 18.1081 11.8381 18.3306 11.4261C18.5531 11.0142 18.8562 10.6828 19.2397 10.4318C19.6232 10.1809 20.0588 9.99148 20.5465 9.86364C21.0389 9.7358 21.555 9.64583 22.0948 9.59375C22.7293 9.52746 23.2406 9.46591 23.6289 9.40909C24.0172 9.34754 24.2989 9.25758 24.4741 9.1392C24.6493 9.02083 24.7369 8.84564 24.7369 8.61364V8.57102C24.7369 8.12121 24.5948 7.7732 24.3107 7.52699C24.0314 7.28078 23.6336 7.15767 23.1175 7.15767C22.573 7.15767 22.1398 7.27841 21.8178 7.51989C21.4959 7.75663 21.2828 8.05492 21.1786 8.41477L18.3803 8.1875C18.5224 7.52462 18.8017 6.9517 19.2184 6.46875C19.6351 5.98106 20.1725 5.60701 20.8306 5.34659C21.4935 5.08144 22.2605 4.94886 23.1317 4.94886C23.7378 4.94886 24.3178 5.01989 24.8718 5.16193C25.4305 5.30398 25.9253 5.52415 26.3562 5.82244C26.7918 6.12074 27.1351 6.50426 27.386 6.97301C27.637 7.43703 27.7624 7.99337 27.7624 8.64205V16H24.8931V14.4872H24.8079C24.6327 14.8281 24.3983 15.1288 24.1048 15.3892C23.8112 15.6449 23.4585 15.8461 23.0465 15.9929C22.6346 16.1349 22.1587 16.206 21.619 16.206ZM22.4854 14.1179C22.9305 14.1179 23.3235 14.0303 23.6644 13.8551C24.0053 13.6752 24.2728 13.4337 24.467 13.1307C24.6611 12.8277 24.7582 12.4844 24.7582 12.1009V10.9432C24.6635 11.0047 24.5333 11.0616 24.3675 11.1136C24.2066 11.161 24.0243 11.206 23.8207 11.2486C23.6171 11.2865 23.4135 11.322 23.2099 11.3551C23.0063 11.3835 22.8216 11.4096 22.6559 11.4332C22.3008 11.4853 21.9906 11.5682 21.7255 11.6818C21.4603 11.7955 21.2544 11.9493 21.1076 12.1435C20.9608 12.3329 20.8874 12.5696 20.8874 12.8537C20.8874 13.2656 21.0366 13.5805 21.3349 13.7983C21.6379 14.0114 22.0214 14.1179 22.4854 14.1179ZM33.1353 9.69318V16H30.1097V5.09091H32.9933V7.01562H33.1211C33.3626 6.38116 33.7674 5.87926 34.3356 5.50994C34.9038 5.13589 35.5927 4.94886 36.4023 4.94886C37.1599 4.94886 37.8204 5.11458 38.3839 5.44602C38.9473 5.77746 39.3853 6.25095 39.6978 6.86648C40.0103 7.47727 40.1665 8.20644 40.1665 9.05398V16H37.141V9.59375C37.1457 8.92614 36.9753 8.4053 36.6296 8.03125C36.284 7.65246 35.8081 7.46307 35.2021 7.46307C34.7949 7.46307 34.435 7.55066 34.1225 7.72585C33.8147 7.90104 33.5733 8.15672 33.3981 8.4929C33.2276 8.82434 33.14 9.22443 33.1353 9.69318ZM49.5469 11.3551V5.09091H52.5724V16H49.6676V14.0185H49.554C49.3078 14.6577 48.8982 15.1714 48.3253 15.5597C47.7571 15.9479 47.0634 16.142 46.2443 16.142C45.5152 16.142 44.8736 15.9763 44.3196 15.6449C43.7656 15.3134 43.3324 14.8423 43.0199 14.2315C42.7121 13.6207 42.5559 12.8892 42.5511 12.0369V5.09091H45.5767V11.4972C45.5814 12.1411 45.7543 12.6501 46.0952 13.0241C46.4361 13.3982 46.893 13.5852 47.4659 13.5852C47.8305 13.5852 48.1714 13.5024 48.4886 13.3366C48.8059 13.1662 49.0616 12.9152 49.2557 12.5838C49.4545 12.2524 49.5516 11.8428 49.5469 11.3551ZM59.9641 16.2131C58.842 16.2131 57.8761 15.9858 57.0664 15.5312C56.2615 15.072 55.6412 14.4233 55.2056 13.5852C54.77 12.7424 54.5522 11.7457 54.5522 10.5952C54.5522 9.47301 54.77 8.48816 55.2056 7.64062C55.6412 6.79309 56.2544 6.13258 57.0451 5.65909C57.8406 5.18561 58.7733 4.94886 59.8434 4.94886C60.5631 4.94886 61.2331 5.06487 61.8533 5.29688C62.4783 5.52415 63.0228 5.86742 63.4869 6.3267C63.9556 6.78598 64.3202 7.36364 64.5806 8.05966C64.841 8.75095 64.9712 9.56061 64.9712 10.4886V11.3196H55.7596V9.4446H62.1232C62.1232 9.009 62.0285 8.62311 61.8391 8.28693C61.6497 7.95076 61.387 7.68797 61.0508 7.49858C60.7193 7.30445 60.3335 7.20739 59.8931 7.20739C59.4338 7.20739 59.0266 7.31392 58.6715 7.52699C58.3211 7.73532 58.0465 8.01705 57.8477 8.37216C57.6488 8.72254 57.547 9.11316 57.5423 9.54403V11.3267C57.5423 11.8665 57.6417 12.3329 57.8406 12.7259C58.0442 13.1188 58.3306 13.4219 58.6999 13.6349C59.0692 13.848 59.5072 13.9545 60.0138 13.9545C60.35 13.9545 60.6578 13.9072 60.9371 13.8125C61.2165 13.7178 61.4556 13.5758 61.6545 13.3864C61.8533 13.197 62.0049 12.965 62.109 12.6903L64.9073 12.875C64.7653 13.5473 64.4741 14.1345 64.0337 14.6364C63.5981 15.1335 63.0347 15.5218 62.3434 15.8011C61.6568 16.0758 60.8638 16.2131 59.9641 16.2131ZM69.9712 1.45455V16H66.9457V1.45455H69.9712ZM79.5877 16H76.2923L81.3136 1.45455H85.2766L90.2908 16H86.9954L83.3519 4.77841H83.2383L79.5877 16ZM79.3817 10.2827H87.1658V12.6832H79.3817V10.2827ZM97.6559 5.09091V7.36364H90.9229V5.09091H97.6559ZM92.4641 16V4.30256C92.4641 3.51184 92.618 2.85606 92.9258 2.33523C93.2383 1.81439 93.6644 1.42377 94.2042 1.16335C94.744 0.902935 95.3571 0.772726 96.0437 0.772726C96.5077 0.772726 96.9315 0.808238 97.315 0.879261C97.7032 0.950284 97.9921 1.0142 98.1815 1.07102L97.6417 3.34375C97.5233 3.30587 97.3765 3.27036 97.2013 3.23722C97.0309 3.20407 96.8557 3.1875 96.6758 3.1875C96.2307 3.1875 95.9206 3.29167 95.7454 3.5C95.5702 3.7036 95.4826 3.99006 95.4826 4.35938V16H92.4641ZM104.043 16.2131C102.939 16.2131 101.985 15.9787 101.18 15.5099C100.38 15.0365 99.7623 14.3783 99.3267 13.5355C98.8911 12.688 98.6733 11.7055 98.6733 10.5881C98.6733 9.46117 98.8911 8.47633 99.3267 7.63352C99.7623 6.78598 100.38 6.12784 101.18 5.65909C101.985 5.18561 102.939 4.94886 104.043 4.94886C105.146 4.94886 106.098 5.18561 106.898 5.65909C107.703 6.12784 108.323 6.78598 108.759 7.63352C109.194 8.47633 109.412 9.46117 109.412 10.5881C109.412 11.7055 109.194 12.688 108.759 13.5355C108.323 14.3783 107.703 15.0365 106.898 15.5099C106.098 15.9787 105.146 16.2131 104.043 16.2131ZM104.057 13.8693C104.559 13.8693 104.978 13.7273 105.314 13.4432C105.65 13.1544 105.903 12.7614 106.074 12.2642C106.249 11.767 106.337 11.2012 106.337 10.5668C106.337 9.93229 106.249 9.36648 106.074 8.86932C105.903 8.37216 105.65 7.97917 105.314 7.69034C104.978 7.40151 104.559 7.2571 104.057 7.2571C103.55 7.2571 103.124 7.40151 102.778 7.69034C102.438 7.97917 102.179 8.37216 102.004 8.86932C101.834 9.36648 101.749 9.93229 101.749 10.5668C101.749 11.2012 101.834 11.767 102.004 12.2642C102.179 12.7614 102.438 13.1544 102.778 13.4432C103.124 13.7273 103.55 13.8693 104.057 13.8693ZM114.405 9.69318V16H111.379V5.09091H114.263V7.01562H114.391C114.632 6.38116 115.037 5.87926 115.605 5.50994C116.173 5.13589 116.862 4.94886 117.672 4.94886C118.429 4.94886 119.09 5.11458 119.653 5.44602C120.217 5.77746 120.655 6.25095 120.967 6.86648C121.28 7.47727 121.436 8.20644 121.436 9.05398V16H118.411V9.59375C118.415 8.92614 118.245 8.4053 117.899 8.03125C117.554 7.65246 117.078 7.46307 116.472 7.46307C116.064 7.46307 115.705 7.55066 115.392 7.72585C115.084 7.90104 114.843 8.15672 114.668 8.4929C114.497 8.82434 114.41 9.22443 114.405 9.69318ZM132.897 8.2017L130.127 8.37216C130.08 8.13542 129.978 7.92235 129.822 7.73295C129.666 7.53883 129.46 7.38494 129.204 7.27131C128.953 7.15294 128.653 7.09375 128.302 7.09375C127.833 7.09375 127.438 7.19318 127.116 7.39205C126.794 7.58617 126.633 7.84659 126.633 8.1733C126.633 8.43371 126.737 8.65388 126.946 8.83381C127.154 9.01373 127.511 9.15814 128.018 9.26705L129.993 9.66477C131.053 9.88258 131.844 10.233 132.365 10.7159C132.886 11.1989 133.146 11.8333 133.146 12.6193C133.146 13.3343 132.935 13.9616 132.514 14.5014C132.097 15.0412 131.524 15.4626 130.795 15.7656C130.071 16.0639 129.235 16.2131 128.288 16.2131C126.844 16.2131 125.693 15.9124 124.836 15.3111C123.984 14.705 123.484 13.8812 123.338 12.8395L126.314 12.6832C126.404 13.1236 126.621 13.4598 126.967 13.6918C127.313 13.919 127.755 14.0327 128.295 14.0327C128.825 14.0327 129.252 13.9309 129.574 13.7273C129.9 13.5189 130.066 13.2514 130.071 12.9247C130.066 12.6501 129.95 12.4252 129.723 12.25C129.495 12.0701 129.145 11.9328 128.672 11.8381L126.782 11.4616C125.717 11.2486 124.924 10.8793 124.403 10.3537C123.887 9.82812 123.629 9.15814 123.629 8.34375C123.629 7.64299 123.818 7.0393 124.197 6.53267C124.581 6.02604 125.118 5.63542 125.809 5.3608C126.505 5.08617 127.32 4.94886 128.252 4.94886C129.63 4.94886 130.715 5.24006 131.505 5.82244C132.301 6.40483 132.765 7.19792 132.897 8.2017ZM139.98 16.2131C138.877 16.2131 137.923 15.9787 137.118 15.5099C136.318 15.0365 135.7 14.3783 135.264 13.5355C134.829 12.688 134.611 11.7055 134.611 10.5881C134.611 9.46117 134.829 8.47633 135.264 7.63352C135.7 6.78598 136.318 6.12784 137.118 5.65909C137.923 5.18561 138.877 4.94886 139.98 4.94886C141.083 4.94886 142.035 5.18561 142.835 5.65909C143.64 6.12784 144.26 6.78598 144.696 7.63352C145.132 8.47633 145.349 9.46117 145.349 10.5881C145.349 11.7055 145.132 12.688 144.696 13.5355C144.26 14.3783 143.64 15.0365 142.835 15.5099C142.035 15.9787 141.083 16.2131 139.98 16.2131ZM139.994 13.8693C140.496 13.8693 140.915 13.7273 141.251 13.4432C141.588 13.1544 141.841 12.7614 142.011 12.2642C142.187 11.767 142.274 11.2012 142.274 10.5668C142.274 9.93229 142.187 9.36648 142.011 8.86932C141.841 8.37216 141.588 7.97917 141.251 7.69034C140.915 7.40151 140.496 7.2571 139.994 7.2571C139.488 7.2571 139.062 7.40151 138.716 7.69034C138.375 7.97917 138.117 8.37216 137.942 8.86932C137.771 9.36648 137.686 9.93229 137.686 10.5668C137.686 11.2012 137.771 11.767 137.942 12.2642C138.117 12.7614 138.375 13.1544 138.716 13.4432C139.062 13.7273 139.488 13.8693 139.994 13.8693Z" fill="black"/>
</svg>
